<?xml version="1.0" encoding="UTF-8" standalone="no"?>
<svg
   xmlns:dc="http://purl.org/dc/elements/1.1/"
   xmlns:cc="http://creativecommons.org/ns#"
   xmlns:rdf="http://www.w3.org/1999/02/22-rdf-syntax-ns#"
   xmlns:svg="http://www.w3.org/2000/svg"
   xmlns="http://www.w3.org/2000/svg"
   xmlns:sodipodi="http://sodipodi.sourceforge.net/DTD/sodipodi-0.dtd"
   xmlns:inkscape="http://www.inkscape.org/namespaces/inkscape"
   version="1.1"
   id="svg10"
   width="1960"
   height="1960"
   viewBox="0 0 1960 1960"
   sodipodi:docname="Apple Music 1 Logo.svg"
   inkscape:version="1.0.1 (3bc2e813f5, 2020-09-07)">
  <metadata
     id="metadata16">
    <rdf:RDF>
      <cc:Work
         rdf:about="">
        <dc:format>image/svg+xml</dc:format>
        <dc:type
           rdf:resource="http://purl.org/dc/dcmitype/StillImage" />
        <dc:title />
      </cc:Work>
    </rdf:RDF>
  </metadata>
  <defs
     id="defs14" />
  <sodipodi:namedview
     pagecolor="#ffffff"
     bordercolor="#666666"
     borderopacity="1"
     objecttolerance="10"
     gridtolerance="10"
     guidetolerance="10"
     inkscape:pageopacity="0"
     inkscape:pageshadow="2"
     inkscape:window-width="1920"
     inkscape:window-height="1001"
     id="namedview12"
     showgrid="false"
     showguides="false"
     inkscape:guide-bbox="true"
     inkscape:zoom="0.34149098"
     inkscape:cx="862.75507"
     inkscape:cy="996.81383"
     inkscape:window-x="-9"
     inkscape:window-y="-9"
     inkscape:window-maximized="1"
     inkscape:current-layer="layer1"
     inkscape:document-rotation="0">
    <sodipodi:guide
       position="618,316.50001"
       orientation="0,-1"
       id="guide880" />
    <sodipodi:guide
       position="1609.5,168.00001"
       orientation="0,-1"
       id="guide882" />
    <sodipodi:guide
       position="1576,279.00001"
       orientation="0,-1"
       id="guide887" />
    <sodipodi:guide
       position="1117.8711,297.23828"
       orientation="0,-1"
       id="guide907" />
    <sodipodi:guide
       position="1482.5,241.25001"
       orientation="1,0"
       id="guide946" />
    <sodipodi:guide
       position="1584,236.75001"
       orientation="1,0"
       id="guide948" />
    <sodipodi:guide
       position="1533.7146,243.85185"
       orientation="1,0"
       id="guide954" />
    <sodipodi:guide
       position="1546.2657,222.63864"
       orientation="0,-1"
       id="guide956" />
  </sodipodi:namedview>
  <g
     inkscape:groupmode="layer"
     id="layer1"
     inkscape:label="Apple Music 1"
     style="display:inline">
    <path
       style="display:inline;fill:#fa0028;fill-opacity:1;stroke-width:2.82843"
       d="m 854.3135,989.75047 c 0,-198.34345 -0.4657,-360.62446 -1.035,-360.62446 -0.5693,0 -24.1617,14.14647 -59.7609,31.43656 -35.5993,17.29012 -85.08129,39.67305 -107.031,50.72682 l -44.3051,19.29027 V 606.95187 479.32409 C 731.31633,433.10652 814.86935,387.71076 904.4079,342.2833 h 122.3741 116.3742 V 848.32911 1350.375 H 1001.7349 854.3135 Z"
       id="path26"
       sodipodi:nodetypes="ssssccccccccccs" />
    <path
       style="fill:#4a4a4a;fill-opacity:1;stroke:none;stroke-width:1px;stroke-linecap:butt;stroke-linejoin:miter;stroke-opacity:1"
       d="m 471.99378,1631.9141 c 0,0 -31.37787,0.9722 -31.81981,37.0347 0,0 30.56359,1.5044 31.81981,-37.0347 z"
       id="path44" />
    <path
       style="fill:#4a4a4a;fill-opacity:1;stroke-width:0.125"
       d="m 440.83116,1666.5696 c 0.14686,-3.393 0.76148,-7.2532 1.65243,-10.3782 1.15814,-4.0621 2.95848,-7.7401 5.39948,-11.0308 1.22427,-1.6505 4.24534,-4.6737 5.86709,-5.8713 4.23937,-3.1307 8.92713,-5.1871 14.28867,-6.2681 0.85938,-0.1732 1.97621,-0.3533 2.48186,-0.4001 l 0.91935,-0.085 -0.0855,1.2379 c -0.6636,9.6074 -2.99063,16.9482 -7.20026,22.7139 -5.15798,7.0645 -13.33043,11.3575 -22.60276,11.8732 l -0.79982,0.045 z"
       id="path46" />
    <path
       style="display:inline;fill:#4a4a4a;fill-opacity:1;stroke:none;stroke-width:1px;stroke-linecap:butt;stroke-linejoin:miter;stroke-opacity:1"
       d="m 500.75,1686.25 c 0,0 -19.8183,11.9304 -17.1875,33.5781 1.19379,9.8232 5.1875,18.6094 21.1875,28.9219 -17.25,48.25 -36.92393,43.0438 -39.75,42.25 -9.2617,-2.6016 -20.125,-11.5 -42.125,-0.25 -26.625,7.5 -45.0147,-51.8489 -46.14645,-64.3039 -4.41295,-48.5651 30.56981,-54.387 35.64645,-55.0711 3.33559,-0.4495 15.375,0.875 21.625,4.625 10.375,4.625 10,1.625 17,-0.875 35.5,-15 49.75,11.125 49.75,11.125 z"
       id="path877"
       sodipodi:nodetypes="cscscssccc" />
    <path
       style="display:inline;fill:#4a4a4a;fill-opacity:1;stroke:none;stroke-width:1px;stroke-linecap:butt;stroke-linejoin:miter;stroke-opacity:1"
       d="M 530.33008,1790.0313 V 1643.5 H 556.75 L 604.5,1760.1875 652.125,1643.5 h 26.29976 v 146.5313 H 657.56511 V 1681.7651 L 613.125,1790.0313 H 596.3125 L 551.5,1681.375 v 108.6563 z"
       id="path884" />
    <path
       style="display:inline;fill:#4a4a4a;fill-opacity:1;stroke:none;stroke-width:1px;stroke-linecap:butt;stroke-linejoin:miter;stroke-opacity:1"
       d="m 701.44862,1682.9141 0.375,74.8359 c 0,0 -2.39254,34.2354 36.74941,34.2354 27.40039,-0.088 33.05724,-20.6829 33.05724,-20.6829 v 18.7288 h 20.90385 V 1682.9141 H 770.9375 l -0.35355,67.9609 c 0,0 -1.61421,22.0185 -24.05597,22.0185 -23.90774,0 -22.75241,-15.6403 -22.75241,-15.6403 l 0.125,-74.3391 z"
       id="path889"
       sodipodi:nodetypes="cccccccccsccc" />
    <path
       style="display:inline;fill:#4a4a4a;fill-opacity:1;stroke:none;stroke-width:1px;stroke-linecap:butt;stroke-linejoin:miter;stroke-opacity:1"
       d="m 873.97855,1714.8384 19.9812,-0.088 c 0,-29.0074 -30.22882,-33.8688 -41.89608,-33.8688 -35.09017,0 -40.12831,22.1855 -40.12831,33.4992 0,11.3137 5.39169,25.721 40.12831,31.5546 24.48357,4.3311 22.27386,12.3744 22.27386,14.5841 0,2.2097 0.88389,14.2305 -19.88738,14.2305 -24.2184,0 -23.33452,-15.6447 -23.33452,-15.6447 h -22.36225 c 0,0 1.85615,32.7037 44.81289,32.7037 42.95674,0 43.2219,-31.3779 43.2219,-31.3779 0,0 5.3033,-24.3952 -31.20109,-30.4056 -18.25219,-3.0052 -26.81262,-7.1173 -29.77582,-11.3137 -5.60161,-7.9329 -0.011,-14.7609 -0.011,-14.7609 0,0 4.30072,-8.8934 22.49009,-5.4328 9.62749,1.8316 13.47583,6.2082 15.68825,16.3207 z"
       id="path892"
       sodipodi:nodetypes="ccsscssccscsscsc" />
    <path
       style="fill:#4a4a4a;fill-opacity:1;stroke:none;stroke-width:1px;stroke-linecap:butt;stroke-linejoin:miter;stroke-opacity:1"
       d="m 1027.7797,1719.6837 c 0,0 -2.6516,-19.9758 -25.4558,-19.9758 -22.80423,0 -26.8701,23.6881 -26.8701,36.7696 0,13.0814 2.65165,36.416 26.3397,36.416 23.6881,0 25.4559,-18.9151 25.4559,-18.9151 H 1049 c 0,0 -3,38.1466 -45.875,38.1466 -42.875,0 -50.375,-35.875 -50.375,-58.25 0,-22.375 12.5,-52.875 48.625,-52.875 36.125,0 47.75,26.625 47.75,38.625 -21.375,0 -21.3453,0.059 -21.3453,0.059 z"
       id="path901" />
    <path
       id="path903"
       style="fill:#fa0028;fill-opacity:1;stroke:none;stroke-width:1px;stroke-linecap:butt;stroke-linejoin:miter;stroke-opacity:1"
       d="m 1094,1643.5 v 146.5312 h 23.2285 v -56.1171 h 30.582 l 29.6114,56.1171 h 27.0469 l -32.8809,-59.2988 c 0,0 28.7266,-9.9875 28.7266,-44.1054 0,-35.8857 -31.2905,-43.127 -41.4551,-43.127 z m 23.2285,19.2617 h 31.7686 c 0,0 26.7529,0 26.7529,26.3633 0,25 -21.875,25.5 -21.875,25.5 h -36.6465 z"
       sodipodi:nodetypes="ccccccccsscccsccc" />
    <path
       id="path914"
       style="display:inline;fill:#fc012b;fill-opacity:1;stroke:none;stroke-width:1px;stroke-linecap:butt;stroke-linejoin:miter;stroke-opacity:1"
       d="m 1262.5391,1680.7051 c -42.8684,0 -44.6641,34.6699 -44.6641,34.6699 h 21.25 c 0,0 0.4333,-15.8438 21.6465,-15.8438 21.2132,1e-4 21.7285,15.7325 21.7285,15.7325 l 0.375,11.2363 c 0,0 -18.375,-0.75 -36.125,2 -17.75,2.75 -33.002,12.8388 -33.002,31.4004 0,18.5615 14.9386,32.1738 36.9473,32.1738 22.0087,0 32.5274,-19.0918 32.5274,-19.0918 v 17.0488 h 21.9199 v -67.2539 c 0,-7.3363 0.2648,-42.0722 -42.6035,-42.0722 z M 1282.5,1742.25 c 3.4471,28.5763 -18.392,31.625 -26.6875,31.625 -7.5,0 -19.5625,-2.6875 -19.5625,-13.875 0,-11.1875 8.625,-13.9375 14,-15.625 5.375,-1.6875 32.25,-2.125 32.25,-2.125 z" />
    <path
       id="path920"
       style="display:inline;fill:#fb0028;fill-opacity:1;stroke:none;stroke-width:1px;stroke-linecap:butt;stroke-linejoin:miter;stroke-opacity:1"
       d="m 1398.75,1643.5 c 0,0 -0.1875,35.625 -0.1875,57.3125 -4.3125,-8.125 -14.4375,-19.375 -34.3125,-19.375 -19.875,0 -44.125,16.0625 -44.125,54.8125 0,38.75 23.625,56 45.75,56 22.125,0 33.9746,-20.0195 33.9746,-20.0195 v 17.8007 H 1421.25 V 1643.5 Z m -28.2012,56.5605 c 26.8701,0 28.1074,28.6381 28.1074,34.6485 0,6.0104 0.8858,37.8301 -27.0449,37.8301 -27.9307,0 -28.4629,-29.1681 -28.4629,-37.1231 0,0 0.5304,-35.3555 27.4004,-35.3555 z" />
    <rect
       style="display:inline;fill:#fb0028;fill-opacity:1;stroke:none"
       id="rect897-4"
       width="21.5"
       height="107.11712"
       x="1444.1886"
       y="1682.9142" />
    <circle
       style="display:inline;fill:#fb0028;fill-opacity:1;stroke:none"
       id="path895-6"
       cx="1454.6886"
       cy="1654.75"
       r="13.25" />
    <path
       id="path960"
       style="display:inline;fill:#fa0028;fill-opacity:1;stroke:none;stroke-width:1px;stroke-linecap:butt;stroke-linejoin:miter;stroke-opacity:1"
       d="m 1534.2793,1680.9844 c -0.3683,0.01 -0.5645,0.016 -0.5645,0.016 0,0 -51.2148,-1.6429 -51.2148,56.3613 0,56.6292 51.2148,54.6387 51.2148,54.6387 0,0 50.2852,2.0548 50.2852,-54.6387 0,-55.3768 -44.1962,-56.458 -49.7207,-56.3769 z m -1.793,19.1289 c 0.7818,-0.021 1.2285,0.012 1.2285,0.012 6.3122,0 27.2227,1.0444 27.2227,37.2363 0,37.9384 -24.6873,36.5137 -27.2227,36.5137 -2.5354,0 -28.5898,1.1251 -28.5898,-36.5137 0,-34.3628 21.8891,-37.1007 27.3613,-37.248 z" />
    <rect
       style="display:inline;fill:#4a4a4a;fill-opacity:1;stroke:none"
       id="rect897-4-2"
       width="21.5"
       height="107.11712"
       x="914"
       y="1682.9142" />
    <circle
       style="display:inline;fill:#4a4a4a;fill-opacity:1;stroke:none"
       id="path895-6-5"
       cx="924.5"
       cy="1654.75"
       r="13.25" />
  </g>
</svg>
